<svg id="end_call" data-name="end call" xmlns="http://www.w3.org/2000/svg" viewBox="0 0 46.45 17.99"><defs><style>.cls-1{fill:#ef4241;}</style></defs><title>end-call</title><path class="cls-1" d="M5.18,32a1.4,1.4,0,0,0,1.72,1l11.25-3.11a1.4,1.4,0,0,0,1-1.72l-0.79-2.87L4.36,29Z" transform="translate(-3.77 -15)"/><path class="cls-1" d="M17.94,23.79s-0.22-.44.62-0.69c3.88-.82,13.94-0.72,16,0,0.7,0.22.85,0.53,0.83,0.81l13.72,4.83c0.44-1.17.93-2.49,1-2.86,0.5-2.17-3.33-5.74-3.48-5.82-6-4.77-15.28-4.85-20.14-5-8,.13-10.87.35-18.54,4.69C6,20.86,3.38,24,3.82,27L4,27.65l14-3.76Z" transform="translate(-3.77 -15)"/><path class="cls-1" d="M34.29,27.09a1.4,1.4,0,0,0,.83,1.8l11,4a1.4,1.4,0,0,0,1.8-.83l0.5-1.36L48.64,30,35,25.2Z" transform="translate(-3.77 -15)"/></svg>