<svg id="ptt_call" data-name="ptt call" xmlns="http://www.w3.org/2000/svg" viewBox="0 0 43.86 44"><defs><style>.cls-1{fill:#fff;}</style></defs><title>ptt call-white</title><path class="cls-1" d="M19.75,30.41a11.51,11.51,0,0,1-3.12-8.7,8.38,8.38,0,0,1,3.34-6l1.79,2.41A5.34,5.34,0,0,0,19.61,22,8.51,8.51,0,0,0,22,28.41l-2.23,2h0Z" transform="translate(0)"/><path class="cls-1" d="M13.76,34.72a15,15,0,0,1-5.46-11,17.4,17.4,0,0,1,5.37-13l2.11,2.13a14.39,14.39,0,0,0-4.48,10.7,12,12,0,0,0,4.39,8.82l-1.92,2.3h0Z" transform="translate(0)"/><path class="cls-1" d="M8,40.15A22,22,0,0,1,0,24.07,25.17,25.17,0,0,1,7.78,5.33L9.89,7.46A21.87,21.87,0,0,0,3,23.95a19,19,0,0,0,6.93,13.9L8,40.15H8Z" transform="translate(0)"/><path class="cls-1" d="M40.86,13h-8V11h-1V0h-3V11h-1v2l-2,3V30l1,1V42l4,2h9l3-2V32l1-2V16ZM37,17.79a1.7,1.7,0,1,1-1.64,1.7A1.67,1.67,0,0,1,37,17.79Zm-4.36,0A1.7,1.7,0,1,1,31,19.49,1.67,1.67,0,0,1,32.68,17.79ZM30.5,24.6a1.7,1.7,0,1,1,1.64-1.7A1.67,1.67,0,0,1,30.5,24.6ZM32.68,28a1.7,1.7,0,1,1,1.64-1.7A1.67,1.67,0,0,1,32.68,28Zm0.55-5.11a1.64,1.64,0,1,1,1.64,1.7A1.67,1.67,0,0,1,33.23,22.89ZM37,28a1.7,1.7,0,1,1,1.64-1.7A1.67,1.67,0,0,1,37,28Zm2.18-3.4a1.7,1.7,0,1,1,1.64-1.7A1.67,1.67,0,0,1,39.23,24.6Z" transform="translate(0)"/></svg>